<svg width="29" height="31" viewBox="0 0 29 31" fill="none" xmlns="http://www.w3.org/2000/svg">
<path d="M1.5 15C1.5 13.067 3.067 11.5 5 11.5H14.5H24C25.933 11.5 27.5 13.067 27.5 15V26C27.5 27.933 25.933 29.5 24 29.5H5C3.067 29.5 1.5 27.933 1.5 26V15Z" stroke="#B8C0FF" stroke-width="3"/>
<mask id="path-2-inside-1_136_3" fill="white">
<path d="M26 13C26 9.55219 24.7884 6.24558 22.6317 3.80761C20.4751 1.36964 17.55 2.60303e-07 14.5 0C11.45 -2.60303e-07 8.52494 1.36964 6.36827 3.80761C4.2116 6.24558 3 9.55218 3 13L14.5 13H26Z"/>
</mask>
<path d="M26 13C26 9.55219 24.7884 6.24558 22.6317 3.80761C20.4751 1.36964 17.55 2.60303e-07 14.5 0C11.45 -2.60303e-07 8.52494 1.36964 6.36827 3.80761C4.2116 6.24558 3 9.55218 3 13L14.5 13H26Z" stroke="#B8C0FF" stroke-width="6" mask="url(#path-2-inside-1_136_3)"/>
<circle cx="14.5" cy="17.5" r="2.5" fill="#B8C0FF"/>
<rect x="13" y="19" width="3" height="5" fill="#B8C0FF"/>
</svg>
