<svg width="16" height="23" viewBox="0 0 16 23" fill="none" xmlns="http://www.w3.org/2000/svg">
<path fill-rule="evenodd" clip-rule="evenodd" d="M3.89896 1.07729C6.31107 -0.382635 9.27594 -0.357118 11.6654 1.14413C14.0314 2.67595 15.4694 5.40981 15.456 8.35067C15.4009 11.2722 13.859 14.0185 11.9316 16.1415C10.8191 17.3724 9.57467 18.4608 8.22362 19.3845C8.08447 19.4683 7.93205 19.5244 7.77389 19.55C7.62166 19.5433 7.47341 19.4964 7.34251 19.4137C5.27986 18.0258 3.47028 16.2542 2.00084 14.1841C0.77125 12.4561 0.0726834 10.3684 1.28257e-06 8.20459C-0.00159494 5.25809 1.48685 2.53721 3.89896 1.07729ZM5.29315 9.42423C5.6989 10.4662 6.65662 11.1459 7.71915 11.1459C8.41523 11.1511 9.08435 10.8606 9.57743 10.3393C10.0705 9.81792 10.3466 9.10896 10.3441 8.37037C10.3478 7.24297 9.71062 6.22439 8.73005 5.79022C7.74947 5.35605 6.61893 5.59193 5.8663 6.38773C5.11367 7.18353 4.8874 8.38226 5.29315 9.42423Z" fill="black"/>
<ellipse opacity="0.4" cx="7.72746" cy="21.85" rx="5.52006" ry="1.15" fill="black"/>
</svg>
