<svg width="35" height="31" viewBox="0 0 35 31" fill="none" xmlns="http://www.w3.org/2000/svg">
<path d="M33.5 15V26C33.5 27.933 31.933 29.5 30 29.5H11C9.067 29.5 7.5 27.933 7.5 26V15C7.5 13.067 9.067 11.5 11 11.5H20.5H30C31.933 11.5 33.5 13.067 33.5 15Z" stroke="#E0E4FF" stroke-width="3"/>
<mask id="path-2-inside-1_194_239" fill="white">
<path d="M32 13C32 9.55219 30.7884 6.24559 28.6317 3.80761C26.4751 1.36964 23.55 2.60303e-07 20.5 0C17.45 -2.60303e-07 14.5249 1.36964 12.3683 3.80761C10.2116 6.24558 9 9.55218 9 13L20.5 13H32Z"/>
</mask>
<path d="M32 13C32 9.55219 30.7884 6.24559 28.6317 3.80761C26.4751 1.36964 23.55 2.60303e-07 20.5 0C17.45 -2.60303e-07 14.5249 1.36964 12.3683 3.80761C10.2116 6.24558 9 9.55218 9 13L20.5 13H32Z" stroke="#E0E4FF" stroke-width="6" mask="url(#path-2-inside-1_194_239)"/>
<circle cx="20.5" cy="17.5" r="2.5" fill="#DEE2FF"/>
<rect x="19" y="19" width="3" height="5" fill="#DEE2FF"/>
<path d="M27.5 15V26C27.5 27.933 25.933 29.5 24 29.5H5C3.067 29.5 1.5 27.933 1.5 26V15C1.5 13.067 3.067 11.5 5 11.5H14.5H24C25.933 11.5 27.5 13.067 27.5 15Z" stroke="#B8C0FF" stroke-width="3"/>
<mask id="path-6-inside-2_194_239" fill="white">
<path d="M26 13C26 9.55219 24.7884 6.24559 22.6317 3.80761C20.4751 1.36964 17.55 2.60303e-07 14.5 0C11.45 -2.60303e-07 8.52494 1.36964 6.36827 3.80761C4.2116 6.24558 3 9.55218 3 13L14.5 13H26Z"/>
</mask>
<path d="M26 13C26 9.55219 24.7884 6.24559 22.6317 3.80761C20.4751 1.36964 17.55 2.60303e-07 14.5 0C11.45 -2.60303e-07 8.52494 1.36964 6.36827 3.80761C4.2116 6.24558 3 9.55218 3 13L14.5 13H26Z" stroke="#B8C0FF" stroke-width="6" mask="url(#path-6-inside-2_194_239)"/>
<circle cx="14.5" cy="17.5" r="2.5" fill="#B8C0FF"/>
<rect x="13" y="19" width="3" height="5" fill="#B8C0FF"/>
</svg>
