<svg width="21" height="30" viewBox="0 0 21 30" fill="none" xmlns="http://www.w3.org/2000/svg">
<path fill-rule="evenodd" clip-rule="evenodd" d="M5.29747 1.40516C8.57477 -0.499089 12.6031 -0.465806 15.8497 1.49234C19.0643 3.49038 21.0181 7.05627 20.9999 10.8922C20.9251 14.7029 18.8301 18.285 16.2113 21.0542C14.6998 22.6596 13.009 24.0793 11.1733 25.2841C10.9843 25.3934 10.7772 25.4666 10.5623 25.5C10.3555 25.4912 10.154 25.4301 9.97619 25.3222C7.17368 23.5119 4.71503 21.2011 2.71851 18.501C1.04789 16.2471 0.0987541 13.524 1.74261e-06 10.7016C-0.00216703 6.85838 2.02016 3.30941 5.29747 1.40516ZM7.19174 12.2925C7.74303 13.6516 9.04428 14.5381 10.4879 14.5381C11.4337 14.5449 12.3428 14.166 13.0127 13.486C13.6827 12.806 14.0578 11.8813 14.0544 10.9179C14.0595 9.44735 13.1937 8.11876 11.8614 7.55245C10.5291 6.98614 8.99307 7.29382 7.97048 8.33182C6.94788 9.36981 6.64046 10.9334 7.19174 12.2925Z" fill="#B8C0FF"/>
<ellipse opacity="0.4" cx="10.4993" cy="28.4999" rx="7.50004" ry="1.5" fill="#B8C0FF"/>
</svg>
