<svg width="23" height="24" viewBox="0 0 23 24" fill="none" xmlns="http://www.w3.org/2000/svg">
<mask id="mask0_102_57" style="mask-type:alpha" maskUnits="userSpaceOnUse" x="0" y="0" width="23" height="24">
<rect width="22.9091" height="24" fill="#D9D9D9"/>
</mask>
<g mask="url(#mask0_102_57)">
<path d="M1.71643 19.3077V17.0846C1.71643 16.5692 1.8434 16.1093 2.09734 15.7048C2.35127 15.3003 2.69039 14.9856 3.1147 14.7607C4.02185 14.2959 4.93403 13.9375 5.85124 13.6856C6.76846 13.4337 7.77655 13.3077 8.8755 13.3077C9.97445 13.3077 10.9825 13.4337 11.8997 13.6856C12.817 13.9375 13.7291 14.2959 14.6363 14.7607C15.0606 14.9856 15.3997 15.3003 15.6537 15.7048C15.9076 16.1093 16.0345 16.5692 16.0345 17.0846V19.3077H1.71643ZM17.9436 19.3077V16.9615C17.9436 16.3051 17.7902 15.6796 17.4834 15.0848C17.1766 14.4901 16.7414 13.9797 16.1778 13.5539C16.8178 13.6539 17.4254 13.8087 18.0005 14.0183C18.5757 14.2279 19.1246 14.4757 19.6471 14.7616C20.1403 15.0372 20.5212 15.3621 20.7898 15.7362C21.0584 16.1103 21.1927 16.5187 21.1927 16.9615V19.3077H17.9436ZM8.8755 11.6923C7.95676 11.6923 7.17027 11.3496 6.516 10.6642C5.86174 9.97876 5.53461 9.15481 5.53461 8.19233C5.53461 7.22983 5.86174 6.40588 6.516 5.72048C7.17027 5.03506 7.95676 4.69235 8.8755 4.69235C9.79423 4.69235 10.5807 5.03506 11.235 5.72048C11.8892 6.40588 12.2164 7.22983 12.2164 8.19233C12.2164 9.15481 11.8892 9.97876 11.235 10.6642C10.5807 11.3496 9.79423 11.6923 8.8755 11.6923ZM17.1175 8.19233C17.1175 9.15481 16.7904 9.97876 16.1362 10.6642C15.4819 11.3496 14.6954 11.6923 13.7767 11.6923C13.669 11.6923 13.5319 11.6795 13.3655 11.6538C13.1991 11.6282 13.062 11.6 12.9543 11.5692C13.3308 11.0951 13.6201 10.5691 13.8222 9.9913C14.0244 9.41347 14.1255 8.81341 14.1255 8.19113C14.1255 7.56886 14.0224 6.97119 13.8162 6.3981C13.61 5.82504 13.3227 5.29748 12.9543 4.81543C13.0914 4.76414 13.2284 4.73081 13.3655 4.71543C13.5025 4.70004 13.6396 4.69235 13.7767 4.69235C14.6954 4.69235 15.4819 5.03506 16.1362 5.72048C16.7904 6.40588 17.1175 7.22983 17.1175 8.19233Z" fill="#282828"/>
</g>
</svg>
